<?xml version="1.0" encoding="utf-8"?>
<!-- Generator: Adobe Illustrator 21.0.0, SVG Export Plug-In . SVG Version: 6.00 Build 0)  -->
<svg version="1.1" id="Capa_1" xmlns="http://www.w3.org/2000/svg" xmlns:xlink="http://www.w3.org/1999/xlink" x="0px" y="0px"
	 viewBox="0 0 94.7 94.7" style="enable-background:new 0 0 94.7 94.7;" xml:space="preserve">
<style type="text/css">
	.st0{fill:#FFFFFF;}
</style>
<path class="st0" d="M41,83.6c-11.9,0-21.6-9.7-21.6-21.6c0-7.3,3.8-14.2,9.9-18.2l-2.2-11.4C15.7,37.8,8.3,49.2,8.3,62
	C8.3,80,23,94.7,41,94.7c8.8,0,17.3-3.6,23.5-10l-4.7-12C56,79.4,48.8,83.6,41,83.6z"/>
<path class="st0" d="M85.9,86.4l-15-38c-0.7-2.7-3.1-4.6-5.9-4.6l-16.1,0l-1.1-5.9h17.4c3.3,0,6.1-2.7,6.1-6.1
	c0-3.3-2.7-6.1-6.1-6.1H45.5l-1-5.2l0.5-0.6c2.1-2.2,3.3-5.1,3.3-8.2C48.4,5.3,43.1,0,36.6,0c-6.5,0-11.8,5.3-11.8,11.8
	c0,4.7,2.8,8.9,7.1,10.8l0.7,0.3L38,51c0,0.1,0,0.2,0.1,0.3l0.2,0.6c0,0.1,0.1,0.2,0.1,0.3l0.1,0.2c0.1,0.1,0.1,0.2,0.2,0.3l0.1,0.2
	c0.1,0.1,0.1,0.2,0.2,0.3l0.1,0.2c0.1,0.1,0.2,0.2,0.2,0.3l0.1,0.1c0.1,0.1,0.2,0.2,0.3,0.3l0.1,0.1c0.1,0.1,0.3,0.2,0.4,0.3
	l0.1,0.1c0.1,0.1,0.3,0.2,0.4,0.3l0.2,0.1c0.1,0.1,0.2,0.1,0.3,0.2l0.1,0.1c0.2,0.1,0.3,0.1,0.4,0.2l0.2,0.1
	c0.1,0.1,0.2,0.1,0.3,0.1l0.2,0.1c0.1,0,0.2,0.1,0.4,0.1l0.2,0c0.1,0,0.3,0,0.4,0.1l0.1,0c0.2,0,0.4,0,0.5,0l0.1,0l16.9,0l13.8,34.9
	c0.9,2.3,3.1,3.8,5.6,3.8c0.8,0,1.5-0.1,2.2-0.4C85.6,93,87.2,89.5,85.9,86.4z"/>
</svg>
